# xmcd
#
# Track frame offsets:
#	150
#	13392
#	38910
#	52172
#	62192
#	92395
#	111242
#	126052
#	154030
#	175022
#	201217
#	216635
#
# Disc length: 3329 seconds
#
# Revision: 1
# Processed by: cddbd v1.5.2PL0 Copyright (c) Steve Scherf et al.
# Submitted via: EasyCDDAExtractor 16.0.6.1
#
DISCID=ae0cff0c
DTITLE=Vargas Blues Band - R-677 Last Night
DYEAR=2002
DGENRE=Blues
TTITLE0=Scratch me back
TTITLE1=Big boss man
TTITLE2=Blues magic
TTITLE3=Bound for Memphis
TTITLE4=Make sweet love 2 u
TTITLE5=I play the blues for youç
TTITLE6=Cant 't you see what you are doing to me
TTITLE7=Do you believe in love?
TTITLE8=All about the girl
TTITLE9=Last night
TTITLE10=Killing floor
TTITLE11=Black cat boogie
EXTD=
EXTT0=
EXTT1=
EXTT2=
EXTT3=
EXTT4=
EXTT5=
EXTT6=
EXTT7=
EXTT8=
EXTT9=
EXTT10=
EXTT11=
PLAYORDER=
